<?xml version="1.0" encoding="iso-8859-1"?>
<!-- Generator: Adobe Illustrator 27.0.0, SVG Export Plug-In . SVG Version: 6.00 Build 0)  -->
<svg version="1.1" id="Capa_1" xmlns="http://www.w3.org/2000/svg" xmlns:xlink="http://www.w3.org/1999/xlink" x="0px" y="0px"
	 viewBox="0 0 510 510" style="enable-background:new 0 0 510 510;" xml:space="preserve">
<g>
	<g>
		<g>
			<polygon style="fill-rule:evenodd;clip-rule:evenodd;fill:#BC9AF4;" points="450,400.995 490,467.662 410.001,467.662 			"/>
			<circle style="fill-rule:evenodd;clip-rule:evenodd;fill:#67CCD1;" cx="327.501" cy="470" r="30"/>
			<rect x="152.5" y="440" style="fill-rule:evenodd;clip-rule:evenodd;fill:#FDCB50;" width="60" height="60"/>
			<polygon style="fill-rule:evenodd;clip-rule:evenodd;fill:#BC9AF4;" points="60,400.023 100,466.689 20,466.689 			"/>
			<polygon style="fill-rule:evenodd;clip-rule:evenodd;fill:#D2DCFD;" points="90,250 105.001,250 105.001,205 90,205 90,145 
				105.001,145 105.001,100 90,100 90,10 420,10 420,100 405,100 405,145 420,145 420,205 405,205 405,250 420,250 420,310 90,310 
							"/>
			<path style="fill-rule:evenodd;clip-rule:evenodd;fill:#93B2F4;" d="M236.766,310c-37.984-64.113-59.788-165.034-59.788-218.863
				c0-53.829,2.626-54.861,7.644-81.136H90v90h15v45H90v60h15v45H90v60H236.766z"/>
			<rect x="105.001" y="100" style="fill-rule:evenodd;clip-rule:evenodd;fill:#93B2F4;" width="300" height="45"/>
			<rect x="105.001" y="205" style="fill-rule:evenodd;clip-rule:evenodd;fill:#93B2F4;" width="300" height="45"/>
		</g>
	</g>
	<g>
		<g>
			<path style="fill:#D2DCFD;" d="M327.5,380H265v-65c0-5.522-4.478-10-10-10s-10,4.478-10,10v65h-62.5c-5.522,0-10,4.478-10,10v45
				c0,5.522,4.478,10,10,10s10-4.478,10-10v-35h125v35c0,5.522,4.478,10,10,10s10-4.478,10-10v-45
				C337.5,384.478,333.022,380,327.5,380z"/>
			<path style="fill:#D2DCFD;" d="M450,349.005h-64.591V315c0-5.522-4.478-10-10-10s-10,4.478-10,10v44.005c0,5.522,4.478,10,10,10
				H440v30.996c0,5.522,4.478,10,10,10s10-4.478,10-10v-40.996C460,353.482,455.522,349.005,450,349.005z"/>
			<path style="fill:#D2DCFD;" d="M134.871,305c-5.522,0-10,4.478-10,10v34.027H59.999c-5.522,0-10,4.478-10,10v40.958
				c0,5.522,4.478,10,10,10s10-4.478,10-10v-30.958h64.872c5.522,0,10-4.478,10-10V315C144.871,309.478,140.394,305,134.871,305z"/>
		</g>
		<g>
			<path style="fill:#052A75;" d="M369.992,45c-5.522,0-10,4.478-10,10s4.478,10,10,10H370c5.522,0,9.996-4.478,9.996-10
				S375.515,45,369.992,45z"/>
			<path style="fill:#052A75;" d="M324.992,45c-5.522,0-10,4.478-10,10s4.478,10,10,10H325c5.522,0,9.996-4.478,9.996-10
				S330.515,45,324.992,45z"/>
			<path style="fill:#052A75;" d="M498.575,462.518l-40-66.667c-1.808-3.013-5.062-4.855-8.575-4.855s-6.768,1.843-8.575,4.855
				l-39.999,66.667c-1.854,3.089-1.901,6.937-0.127,10.071c1.775,3.136,5.1,5.073,8.702,5.073H490c3.603,0,6.927-1.938,8.702-5.073
				C500.477,469.454,500.429,465.606,498.575,462.518z M427.663,457.662L450,420.432l22.338,37.23H427.663z"/>
			<path style="fill:#052A75;" d="M327.5,430c-22.056,0-40,17.944-40,40s17.944,40,40,40c22.057,0,40.001-17.944,40.001-40
				S349.557,430,327.5,430z M327.5,490c-11.028,0-20-8.972-20-20s8.972-20,20-20s20.001,8.972,20.001,20S338.528,490,327.5,490z"/>
			<path style="fill:#052A75;" d="M212.5,430h-60c-5.522,0-10,4.478-10,10v60c0,5.522,4.478,10,10,10h60c5.522,0,10-4.478,10-10v-60
				C222.5,434.478,218.022,430,212.5,430z M202.5,490h-40v-40h40V490z"/>
			<path style="fill:#052A75;" d="M68.574,394.878c-1.808-3.013-5.062-4.855-8.575-4.855s-6.768,1.843-8.575,4.855l-39.999,66.667
				c-1.854,3.089-1.901,6.937-0.127,10.071c1.775,3.136,5.1,5.073,8.702,5.073h79.999c3.603,0,6.927-1.938,8.702-5.073
				c1.774-3.135,1.727-6.982-0.127-10.071L68.574,394.878z M37.662,456.689l22.337-37.23l22.338,37.23H37.662z"/>
			<path style="fill:#052A75;" d="M90,320h330c5.522,0,10-4.478,10-10v-60c0-5.522-4.478-10-10-10h-5v-25h5c5.522,0,10-4.478,10-10
				v-60c0-5.522-4.478-10-10-10h-5v-25h5c5.522,0,10-4.478,10-10V10c0-5.522-4.478-10-10-10H90c-5.522,0-10,4.478-10,10v90
				c0,5.522,4.478,10,10,10h5v25h-5c-5.522,0-10,4.478-10,10v60c0,5.522,4.478,10,10,10h5v25h-5c-5.522,0-10,4.478-10,10v60
				C80,315.522,84.478,320,90,320z M410,300H100v-40h310V300z M100,195v-40h310v40H100z M100,20h310v70H100V20z M115,110h280v25H115
				V110z M115,215h280v25H115V215z"/>
		</g>
	</g>
</g>
<g>
</g>
<g>
</g>
<g>
</g>
<g>
</g>
<g>
</g>
<g>
</g>
<g>
</g>
<g>
</g>
<g>
</g>
<g>
</g>
<g>
</g>
<g>
</g>
<g>
</g>
<g>
</g>
<g>
</g>
</svg>
